<svg xmlns="http://www.w3.org/2000/svg" width="417.785" height="588.213" viewBox="0 0 417.785 588.213"><g transform="translate(-1190.17 144.663)"><rect width="117.785" height="33.573" transform="translate(1190.17 409.977)" fill="#ffb0b0"/><rect width="117.785" height="33.573" transform="translate(1350.17 114.169)" fill="#ffb0b0"/><rect width="117.785" height="33.573" transform="translate(1210.17 373.001)" fill="#ffb0b0"/><rect width="117.785" height="33.573" transform="translate(1370.17 77.193)" fill="#ffb0b0"/><rect width="117.785" height="33.573" transform="translate(1230.17 336.025)" fill="#ffb0b0"/><rect width="117.785" height="33.573" transform="translate(1390.17 40.218)" fill="#ffb0b0"/><rect width="117.785" height="33.573" transform="translate(1250.17 299.049)" fill="#ffb0b0"/><rect width="117.785" height="33.573" transform="translate(1410.17 3.241)" fill="#ffb0b0"/><rect width="117.785" height="33.573" transform="translate(1270.17 262.072)" fill="#ffb0b0"/><rect width="117.785" height="33.573" transform="translate(1430.17 -33.735)" fill="#ffb0b0"/><rect width="117.785" height="33.573" transform="translate(1290.17 225.097)" fill="#ffb0b0"/><rect width="117.785" height="33.573" transform="translate(1450.17 -70.711)" fill="#ffb0b0"/><rect width="117.785" height="33.573" transform="translate(1310.17 188.121)" fill="#ffb0b0"/><rect width="117.785" height="33.573" transform="translate(1470.17 -107.687)" fill="#ffb0b0"/><rect width="117.785" height="33.573" transform="translate(1330.17 151.145)" fill="#ffb0b0"/><rect width="117.785" height="33.573" transform="translate(1490.17 -144.663)" fill="#ffb0b0"/></g></svg>