<svg xmlns="http://www.w3.org/2000/svg" width="116.773" height="98.49" viewBox="0 0 116.773 98.49"><path d="M50.992,80.245c5.571,8.888,10.642,18.06,15.475,27.377a170.009,170.009,0,0,1,12.449,29.009,39.1,39.1,0,0,1,1.592,7.923c.308,2.544.087,6.2-2.69,8.092-2.7,1.719-5.745,1.516-8.4.993a25.558,25.558,0,0,1-7.511-3.1c-4.589-2.788-8.58-6.959-10.253-12.268-1.795-5.356.093-11.321,3.538-15.405,7.162-8.074,16.4-13.36,25.362-18.739,9.079-5.245,18.362-10.113,27.773-14.714,18.8-9.224,37.921-17.763,57.253-25.8a.594.594,0,0,1,.453,1.1c-19.274,8.092-38.351,16.7-57.079,25.977-9.376,4.618-18.618,9.509-27.633,14.76-8.864,5.344-18.095,10.77-24.833,18.431-3.212,3.88-4.8,9.143-3.207,13.9,1.487,4.752,5.263,8.615,9.585,11.159a23.766,23.766,0,0,0,6.959,2.771c2.387.459,5.019.465,6.773-.778,1.719-1.255,1.917-3.735,1.557-6.163a54.383,54.383,0,0,0-1.557-9.149c-6.86-19.477-17.078-36.236-26.884-54.627a.742.742,0,0,1,.29-1A.75.75,0,0,1,50.992,80.245Z" transform="translate(-49.625 -55.522)" fill="#a5a2ff"/><path d="M51.26,94.454a51.476,51.476,0,0,1,9.475-9.44,11.463,11.463,0,0,1,6.354-2.55c2.608-.006,4.487,2.2,5.245,4.288,1.581,4.469.257,9.09-1.231,13.18a89.608,89.608,0,0,1-5.741,12.025v.012l-1.389-1.062L76.728,96.123a.592.592,0,0,1,.829-.088.63.63,0,0,1,.216.56l-1.9,11.01h0l-.724-.251,24.92-44.815a.875.875,0,0,1,1.19-.344.891.891,0,0,1,.368,1.132h0c-4.5,9.58-8.775,19.283-12.72,29.085l-1.394,3.7L86.9,97.972c-.21.478-.292,1.564-.391,1.418-.531-.181.006-.122.158-.35q.35-.28.7-.613c.461-.443.916-.91,1.354-1.4l2.567-2.987c3.343-4.078,6.558-8.3,9.575-12.632l1.389,1.068-.006.006c-1.64,2.17-3.4,4.854-3.367,7.3a2,2,0,0,0,.537,1.289c.035.105.759-.1,1.278-.473a19.857,19.857,0,0,0,3.168-2.795,128.119,128.119,0,0,0,10.864-13.735.514.514,0,0,1,.712-.14.53.53,0,0,1,.152.694h0c-1.581,2.836-3.215,5.87-3.7,8.985a1.631,1.631,0,0,0,2.334,2.077,13.5,13.5,0,0,0,4.16-2.334c5.169-4.067,9.6-9.119,13.828-14.2a.442.442,0,0,1,.63-.082.461.461,0,0,1,.076.642c-4.259,5.146-8.653,10.2-13.951,14.406a14.28,14.28,0,0,1-4.493,2.515,2.574,2.574,0,0,1-3.577-3.133c.554-3.495,2.188-6.453,3.81-9.405h0l.869.548a129.289,129.289,0,0,1-10.707,14.108A20.6,20.6,0,0,1,101.5,91.84a2.9,2.9,0,0,1-2.789.589,3.213,3.213,0,0,1-1.394-2.5c-.029-3.524,1.844-6.045,3.559-8.542l.006-.006.035-.041a.875.875,0,0,1,1.354,1.109c-3.343,4.137-6.6,8.32-10.047,12.369L89.553,97.8c-.461.49-.939.969-1.441,1.43a9.4,9.4,0,0,1-.811.677c-.362.07-.478.764-1.593.193-.449-1.389.064-1.669.146-2.433l.613-1.92L87.831,92c3.816-9.913,8.11-19.6,12.206-29.383v-.006l1.558.794L75.829,107.739a.388.388,0,0,1-.723-.251h0L76.594,96.42l1.044.467L65.31,112.028A.872.872,0,0,1,63.9,111l.018-.035h.006a43.5,43.5,0,0,0,6.447-11.307c1.441-4.02,2.55-8.571,1.05-12.538-.77-1.92-2.334-3.612-4.347-3.559a10.456,10.456,0,0,0-5.63,2.427,44.062,44.062,0,0,0-8.769,9.493l-.023.035a.875.875,0,0,1-1.412-1.033Z" transform="translate(-43.38 -62.085)" fill="#a5a2ff"/><path d="M56.953,82.387a.5.5,0,0,1-.5-.479,16.241,16.241,0,0,1,.429-4.5,6.789,6.789,0,0,1-1.96-.948.5.5,0,0,1,.608-.788,5.662,5.662,0,0,0,1.626.8A8.691,8.691,0,0,1,62.509,70.7c1.511-.489,2.853-.239,3.407.628.319.489.618,1.571-.933,3.312-2.619,2.923-5.217,3.312-7.127,3a14.916,14.916,0,0,0-.4,4.235.5.5,0,0,1-.479.519Zm1.187-5.7c1.6.224,3.826-.18,6.1-2.723.8-.893,1.112-1.681.838-2.1-.244-.389-1.107-.584-2.269-.219A7.659,7.659,0,0,0,58.14,76.691Z" transform="translate(-30.655 -19.195)" fill="#a5a2ff"/><path d="M57.975,81.972a.483.483,0,0,1-.2-.04.5.5,0,0,1-.249-.663c.065-.15.953-2.1,2.289-4.494a16.153,16.153,0,0,1-2.23-1.586.5.5,0,0,1-.045-.7.489.489,0,0,1,.7-.05A15.28,15.28,0,0,0,60.3,75.9,38.726,38.726,0,0,1,64.08,70.34c1.082-1.272,1.99-1.342,2.594-1.152,1.017.314,1.771,1.6,1.96,3.342s-.229,4.15-2.025,5.163c-1.9,1.072-4.14.444-5.92-.439-1.347,2.419-2.244,4.394-2.259,4.424A.492.492,0,0,1,57.975,81.972Zm3.207-5.6c1.551.778,3.437,1.292,4.933.449,1.292-.728,1.7-2.624,1.526-4.185-.14-1.282-.658-2.309-1.262-2.494-.549-.185-1.137.369-1.541.843A37.947,37.947,0,0,0,61.182,76.376Z" transform="translate(-20.644 -24.533)" fill="#a5a2ff"/><path d="M61.57,83.165a.473.473,0,0,1-.16-.03.5.5,0,0,1-.314-.628c.085-.249.953-2.828,2.185-5.736a21.566,21.566,0,0,1-3.192-4.1.5.5,0,1,1,.858-.5A22.873,22.873,0,0,0,63.7,75.793c1.741-3.93,4-8.06,5.965-7.731.923.165,1.566.978,1.806,2.294.489,2.629-.648,6.554-3.057,8a2.85,2.85,0,0,1-2.21.289,5.928,5.928,0,0,1-2.15-1.177c-.718,1.711-1.412,3.546-2.015,5.357A.5.5,0,0,1,61.57,83.165Zm2.9-6.649a5.176,5.176,0,0,0,1.99,1.157,1.8,1.8,0,0,0,1.451-.18c1.965-1.172,3.008-4.7,2.589-6.953-.095-.509-.349-1.382-1-1.491C68.349,68.82,66.368,72.182,64.468,76.516Z" transform="translate(-10.95 -28.784)" fill="#a5a2ff"/></svg>