<svg xmlns="http://www.w3.org/2000/svg" width="152.589" height="77.068" viewBox="0 0 152.589 77.068"><path d="M73.778,136.44l.669-1.205a16.773,16.773,0,0,1,5.1-5.633c8.513-7.646,17.533-15.056,26.715-21.967a257.984,257.984,0,0,1,24-16.153,107.143,107.143,0,0,1,.368-21.895c.036-.271.072-.6.1-.964.193-1.982.458-4.693,1.9-5.79a2.4,2.4,0,0,1,1.9-.44l.229.042.181.163a8.606,8.606,0,0,1,2.259,3.633,100.462,100.462,0,0,1,4.392,12.086q.5,1.554.988,3.1c.331,1.006.669,2.018,1,3.024a133.384,133.384,0,0,1,14.948-6.007c.392-.114.789-.229,1.187-.343.428-.331.856-.663,1.283-1,4.266-3.585,8.7-7.248,13.171-10.869,2.259-1.585,3.549-2.1,4.675-1.862,1.289.265,2.012,1.446,3.019,3.079.367.608.8,1.3,1.313,2.048a15.292,15.292,0,0,0,1.482,1.874c1.145-.289,2.289-.578,3.422-.868C197,67.853,205.973,64.919,214.7,61.78c.139-.042.38-.139.711-.271,2.94-1.157,6.194-2.332,8.007-2.109l2.946.319-2.717,1.175c-.813.355-1.747.657-2.633.952-.434.145-.862.289-1.259.428a132.233,132.233,0,0,0-14.02,6.26c-3.175,1.566-6.453,3.187-9.773,4.6-4.681,1.976-8.254,3.091-11.767-.036-7.911,2.036-15.876,4.187-23.775,6.416-4.169,3.223-8.477,6.272-12.827,9.08-.711.488-1.428.964-2.145,1.434.283.843.572,1.687.85,2.537q7.194-4.184,14.478-8.1l.741,1.38q-7.393,3.976-14.713,8.23c2.241,6.712,4.452,13.58,6.158,20.5.747,3.012,1.386,5.609.145,7.4-.783,1.121-2.175,1.759-4.374,2.006-4.73.536-8.977-.681-13.05-2.283.211,1.422.416,2.88.488,4.332l-1.567.072c-.078-1.554-.319-3.157-.548-4.705l-.06-.386c-.735-.307-1.47-.627-2.2-.94-1.651-.711-3.356-1.446-5.073-2.085a86.263,86.263,0,0,0-12.189-3.35c-.084-.018-.229-.036-.428-.072-7.682,4.9-15.454,9.736-23.226,14.436-.38.217-.9.536-1.548.922-3.681,2.223-10.544,6.362-14.183,6.477ZM130.4,93.212a262.639,262.639,0,0,0-23.208,15.671c-9.146,6.881-18.123,14.267-26.679,21.943a15.686,15.686,0,0,0-3.79,3.723c3.537-.976,8.977-4.26,11.8-5.965.657-.4,1.2-.723,1.567-.928,7.248-4.386,14.514-8.9,21.7-13.472-2.434-.446-4.525-1.024-5.29-1.952l-.337-.4.241-.464c.964-1.85,5.254-4.145,8.887-5.935.3-.151.524-.259.633-.319l3.669-1.976c3.8-2.042,7.507-4.037,11.164-6.085C130.63,95.778,130.5,94.495,130.4,93.212Zm5.019,26.7c4.242,1.735,8.423,3.061,13.135,2.518,1.705-.187,2.771-.633,3.266-1.35.843-1.2.277-3.482-.374-6.121-1.663-6.754-3.82-13.49-6.013-20.069q-6.29,3.678-12.466,7.549c.488,3.874,1.042,7.73,1.6,11.556.277,1.94.56,3.868.831,5.778Zm-19.407-6.561a86.63,86.63,0,0,1,11.243,3.169c1.765.651,3.495,1.4,5.163,2.115.44.193.88.386,1.32.572-.235-1.657-.476-3.314-.717-4.983-.524-3.6-1.048-7.23-1.518-10.875-1.94,1.229-3.868,2.458-5.79,3.705Q120.906,110.2,116.013,113.347Zm-7.826-1.771a20.957,20.957,0,0,0,5.573,1.356q5.585-3.57,11.1-7.194,3.19-2.07,6.423-4.1c-.114-.964-.235-1.934-.337-2.9-3.482,1.94-7.007,3.838-10.61,5.778l-3.669,1.97c-.12.066-.356.187-.681.343C111.832,108.888,109.211,110.479,108.187,111.576Zm24.245-13.658c.1.934.211,1.868.319,2.8q6.028-3.751,12.17-7.35c-.271-.819-.548-1.639-.825-2.452C140.246,93.4,136.366,95.694,132.431,97.917Zm-.53-5.579c.1,1.3.217,2.585.349,3.88,3.82-2.169,7.585-4.4,11.333-6.832-.307-.922-.621-1.844-.928-2.765C138.938,88.422,135.348,90.344,131.9,92.338Zm2.139-28.419a.753.753,0,0,0-.464.157c-.9.687-1.139,3.2-1.289,4.7-.036.386-.066.735-.1,1.024a103.387,103.387,0,0,0-.416,20.81c3.338-1.91,6.8-3.754,10.387-5.489-.362-1.072-.711-2.145-1.06-3.217-.331-1.03-.663-2.073-.994-3.115a103.011,103.011,0,0,0-4.356-11.99A7.216,7.216,0,0,0,134.04,63.919ZM144.072,85.94c.289.85.578,1.705.862,2.561.6-.4,1.2-.8,1.8-1.2,3.067-1.982,6.109-4.079,9.092-6.272C151.8,82.487,147.867,84.144,144.072,85.94Zm34.252-20.063c-.639,0-1.669.512-3.211,1.6-3.9,3.163-7.808,6.374-11.61,9.562,6.483-1.814,12.99-3.561,19.455-5.23-.356-.428-.717-.9-1.078-1.434-.53-.777-.964-1.482-1.35-2.109-.831-1.344-1.374-2.235-2-2.368A1.076,1.076,0,0,0,178.324,65.877Zm7.79,6.73c2.47,1.6,5.115.837,9.236-.916,3.284-1.392,6.543-3,9.688-4.555.741-.361,1.476-.729,2.217-1.1-6.206,2.109-12.49,4.109-18.762,5.965C187.7,72.2,186.91,72.408,186.114,72.606Z" transform="translate(-73.778 -59.372)" fill="#a5a2ff"/></svg>