<svg xmlns="http://www.w3.org/2000/svg" viewBox="0 0 317 396"><path fill="#fff" d="M314 10c1.7 0 3-1.3 3-3V3c0-1.7-1.3-3-3-3h-4c-1.7 0-3 1.3-3 3v1H163c0-1.7-1.3-3-3-3h-2c-1.7 0-3 1.3-3 3H10V3c0-1.7-1.3-3-3-3H3C1.3 0 0 1.3 0 3v4c0 1.7 1.3 3 3 3h1v184c-1.7 0-3 1.3-3 3v2c0 1.7 1.3 3 3 3v184H3c-1.7 0-3 1.3-3 3v4c0 1.7 1.3 3 3 3h4c1.7 0 3-1.3 3-3v-1h145c0 1.7 1.3 3 3 3h2c1.7 0 3-1.3 3-3h144v1c0 1.7 1.3 3 3 3h4c1.7 0 3-1.3 3-3v-4c0-1.7-1.3-3-3-3h-1V202c1.7 0 3-1.3 3-3v-2c0-1.7-1.3-3-3-3V10h1zM158 3h2c.6 0 1 .4 1 1v2c0 .6-.4 1-1 1h-2c-.6 0-1-.4-1-1V4c0-.6.4-1 1-1zM3 8c-.6 0-1-.4-1-1V3c0-.6.4-1 1-1h4c.6 0 1 .4 1 1v4c0 .6-.4 1-1 1H3zm0 191v-2c0-.6.4-1 1-1h2c.6 0 1 .4 1 1v2c0 .6-.4 1-1 1H4c-.6 0-1-.4-1-1zm5 194c0 .6-.4 1-1 1H3c-.6 0-1-.4-1-1v-4c0-.6.4-1 1-1h4c.6 0 1 .4 1 1v4zm152 0h-2c-.6 0-1-.4-1-1v-2c0-.6.4-1 1-1h2c.6 0 1 .4 1 1v2c0 .6-.4 1-1 1zm154-5c.6 0 1 .4 1 1v4c0 .6-.4 1-1 1h-4c-.6 0-1-.4-1-1v-4c0-.6.4-1 1-1h4zm0-191v2c0 .6-.4 1-1 1h-2c-.6 0-1-.4-1-1v-2c0-.6.4-1 1-1h2c.6 0 1 .4 1 1zm-3-3c-1.7 0-3 1.3-3 3v2c0 1.7 1.3 3 3 3v184h-1c-1.7 0-3 1.3-3 3v1H163c0-1.7-1.3-3-3-3h-2c-1.7 0-3 1.3-3 3H10v-1c0-1.7-1.3-3-3-3H6V202c1.7 0 3-1.3 3-3v-2c0-1.7-1.3-3-3-3V10h1c1.7 0 3-1.3 3-3V6h145c0 1.7 1.3 3 3 3h2c1.7 0 3-1.3 3-3h144v1c0 1.7 1.3 3 3 3h1v184zm0-186h-1c-.6 0-1-.4-1-1V3c0-.6.4-1 1-1h4c.6 0 1 .4 1 1v4c0 .6-.4 1-1 1h-3z"/></svg>